<?xml version="1.0" encoding="utf-8"?>
<!-- Generator: Adobe Illustrator 18.0.0, SVG Export Plug-In . SVG Version: 6.00 Build 0)  -->
<!DOCTYPE svg PUBLIC "-//W3C//DTD SVG 1.1//EN" "http://www.w3.org/Graphics/SVG/1.1/DTD/svg11.dtd">
<svg version="1.1" id="Layer_1" xmlns="http://www.w3.org/2000/svg" xmlns:xlink="http://www.w3.org/1999/xlink" x="0px" y="0px"
	 viewBox="0 0 114.46 114.46" enable-background="new 0 0 114.46 114.46" xml:space="preserve">
<g>
	<path opacity="0.5" d="M114.46,57.23c0,31.61-25.62,57.23-57.23,57.23S0,88.84,0,57.23S25.62,0,57.23,0S114.46,25.62,114.46,57.23z
		"/>
	<g opacity="0.8">
		<path fill="#FFFFFF" d="M73.26,69.38h8.42c1.51,0,2.74-1.23,2.74-2.74c0-1.51-1.23-2.74-2.74-2.74H71.38
			c-4.13,0-7.48,3.36-7.48,7.48v10.19c0,1.52,1.23,2.74,2.74,2.74c1.52,0,2.74-1.23,2.74-2.74v-8.3L83.3,87.18
			c0.54,0.54,1.24,0.8,1.94,0.8s1.4-0.27,1.94-0.8c1.07-1.07,1.07-2.81,0-3.88L73.26,69.38z"/>
		<path fill="#FFFFFF" d="M43.3,63.9H33c-1.51,0-2.74,1.23-2.74,2.74c0,1.52,1.23,2.74,2.74,2.74h8.42L27.5,83.3
			c-1.07,1.07-1.07,2.81,0,3.88c0.54,0.54,1.24,0.8,1.94,0.8s1.4-0.27,1.94-0.8L45.3,73.26v8.3c0,1.52,1.23,2.74,2.74,2.74
			c1.51,0,2.74-1.23,2.74-2.74V71.38C50.79,67.25,47.43,63.9,43.3,63.9z"/>
		<path fill="#FFFFFF" d="M71.38,50.79h10.31c1.51,0,2.74-1.23,2.74-2.74c0-1.52-1.23-2.74-2.74-2.74h-8.42l13.91-13.91
			c1.07-1.07,1.07-2.81,0-3.88c-1.07-1.07-2.81-1.07-3.88,0L69.38,41.42v-8.3c0-1.52-1.23-2.74-2.74-2.74
			c-1.51,0-2.74,1.23-2.74,2.74V43.3C63.9,47.43,67.25,50.79,71.38,50.79z"/>
		<path fill="#FFFFFF" d="M48.04,30.25c-1.52,0-2.74,1.23-2.74,2.74v8.42L31.38,27.5c-1.07-1.07-2.81-1.07-3.88,0
			c-1.07,1.07-1.07,2.81,0,3.88L41.42,45.3H33c-1.51,0-2.74,1.23-2.74,2.74c0,1.51,1.23,2.74,2.74,2.74H43.3
			c4.13,0,7.48-3.36,7.48-7.48V33C50.79,31.48,49.56,30.25,48.04,30.25z"/>
	</g>
</g>
</svg>
