<?xml version="1.0" encoding="utf-8"?>
<!-- Generator: Adobe Illustrator 18.0.0, SVG Export Plug-In . SVG Version: 6.00 Build 0)  -->
<!DOCTYPE svg PUBLIC "-//W3C//DTD SVG 1.1//EN" "http://www.w3.org/Graphics/SVG/1.1/DTD/svg11.dtd">
<svg version="1.1" id="Layer_1" xmlns="http://www.w3.org/2000/svg" xmlns:xlink="http://www.w3.org/1999/xlink" x="0px" y="0px"
	 viewBox="0 0 137.76 137.76" enable-background="new 0 0 137.76 137.76" xml:space="preserve">
<g>
	<circle fill="#E91C43" cx="68.88" cy="68.88" r="68.88"/>
	<path fill="#FFFFFF" d="M45.38,81.63c2.2,0.04,4.11-0.66,5.49-2.04c1.37-1.37,2.09-3.27,2.09-5.52l0.01-5.19
		c12.52-7.19,30.83-3.22,31.91,0c-0.08,1.75-0.06,3.46-0.04,5.12c0,0.62,0.01-0.57,0.01,0.05c0,4.68,3.03,7.7,7.7,7.7h6.08
		c0.69,0,1.4,0,2.09,0.02c1.36,0.02,0.94,0.03,2.33-0.02c2.15-0.01,4.01-0.73,5.37-2.09s2.1-3.24,2.15-5.42c0-0.02,0-0.02,0-0.04
		l-0.03-3.94c0-2.85-0.92-5.4-2.76-7.59c-2.98-3.52-6.97-5.59-9.68-6.83c-6.67-3.06-13.87-4.88-22.72-5.69
		c-10.7-0.95-21.16,0.32-31.1,3.78c-3.77,1.35-8.63,3.33-12.69,6.9c-0.24,0.22-0.5,0.46-0.72,0.68c-2.57,2.57-3.81,5.65-3.66,9.18
		c0.01,0.03,0,0.07,0.01,0.1c0.12,1.28,0.09,0.75,0.07,2.13c-0.02,0.93-0.03,0.07-0.01,1.05c0.04,2.25,0.8,4.16,2.17,5.53
		c1.38,1.38,3.29,2.11,5.53,2.1L45.38,81.63z"/>
</g>
</svg>
