<?xml version="1.0" encoding="utf-8"?>
<!-- Generator: Adobe Illustrator 18.0.0, SVG Export Plug-In . SVG Version: 6.00 Build 0)  -->
<!DOCTYPE svg PUBLIC "-//W3C//DTD SVG 1.1//EN" "http://www.w3.org/Graphics/SVG/1.1/DTD/svg11.dtd">
<svg version="1.1" id="Layer_1" xmlns="http://www.w3.org/2000/svg" xmlns:xlink="http://www.w3.org/1999/xlink" x="0px" y="0px"
	 viewBox="0 0 137.76 137.76" enable-background="new 0 0 137.76 137.76" xml:space="preserve">
<g>
	<circle opacity="0.5" cx="68.88" cy="68.88" r="68.88"/>
	<g>
		<g>
			<path fill="#FFFFFF" d="M79.52,73.63v-7.82L62.9,82.43c1.71,1.16,3.76,1.84,5.98,1.84C74.75,84.27,79.52,79.5,79.52,73.63z"/>
			<path fill="#FFFFFF" d="M85.98,67.27h-2.12c-0.68,0-1.23,0.55-1.23,1.23v4.33c0,7.58-6.17,13.75-13.75,13.75
				c-2.87,0-5.54-0.88-7.74-2.39l-3.23,3.23c2.49,1.9,5.46,3.19,8.68,3.6v3.07h-9.46c-0.68,0-1.23,0.55-1.23,1.23v2.12
				c0,0.68,0.55,1.23,1.23,1.23h23.51c0.68,0,1.23-0.55,1.23-1.23v-2.12c0-0.68-0.55-1.23-1.23-1.23h-9.46v-3.07
				c9-1.13,16.04-9.12,16.04-18.19V68.5C87.22,67.82,86.67,67.27,85.98,67.27z"/>
			<path fill="#FFFFFF" d="M92.08,43.83c-1.32-1.32-3.47-1.32-4.79,0l-7.77,7.77v-1.87c0-5.87-4.77-10.64-10.64-10.64
				s-10.64,4.77-10.64,10.64v23.15l-2.81,2.81c-0.2-0.92-0.3-1.87-0.3-2.85V68.5c0-0.68-0.55-1.23-1.23-1.23h-2.12
				c-0.68,0-1.23,0.55-1.23,1.23v4.33c0,2.26,0.45,4.46,1.25,6.49l-6.11,6.11c-1.32,1.32-1.32,3.47,0,4.8
				c0.66,0.66,1.53,0.99,2.4,0.99s1.74-0.33,2.4-0.99l41.61-41.61C93.41,47.3,93.41,45.15,92.08,43.83z"/>
		</g>
	</g>
</g>
</svg>
